HIERARCHY
ROOT Hips
{
  OFFSET 0.0 0.0 0.0
  CHANNELS 6 XPOSITION YPOSITION ZPOSITION ZROTATION XROTATION YROTATION 
  JOINT LeftUpLeg
  {
    OFFSET 0.08945800000000001 -0.0866707 0.0010165200000000001
    CHANNELS 3 ZROTATION XROTATION YROTATION 
    JOINT LeftLeg
    {
      OFFSET 0.0 -0.444227 0.013727000000000001
      CHANNELS 3 ZROTATION XROTATION YROTATION 
      JOINT LeftFoot
      {
        OFFSET -0.0025354900000000005 -0.42092399999999996 -0.014605900000000002
        CHANNELS 3 ZROTATION XROTATION YROTATION 
        End Site
        {
          OFFSET -0.0004 -0.0441509 0.08499100000000001
        }
      }
    }
  }
  JOINT Spine
  {
    OFFSET 0.0 0.118905 0.0
    CHANNELS 3 ZROTATION XROTATION YROTATION 
    JOINT Spine1
    {
      OFFSET 0.0 0.25657399999999997 0.00127663
      CHANNELS 3 ZROTATION XROTATION YROTATION 
      End Site
      {
        OFFSET -0.0029 0.21508359999999999 0.02525291
      }
      JOINT RightArm
      {
        OFFSET -0.162727 -0.05365632 0.0010212299999999997
        CHANNELS 3 ZROTATION XROTATION YROTATION 
        JOINT RightForeArm
        {
          OFFSET -0.26364 0.00099144 -0.0142434
          CHANNELS 3 ZROTATION XROTATION YROTATION 
          End Site
          {
            OFFSET -0.220324 0.0008536199999999999 0.010221599999999999
          }
        }
      }
      JOINT LeftArm
      {
        OFFSET 0.162727 -0.053656319900000006 0.0010212299999999997
        CHANNELS 3 ZROTATION XROTATION YROTATION 
        JOINT LeftForeArm
        {
          OFFSET 0.26259699999999997 0.00099144 -0.0142434
          CHANNELS 3 ZROTATION XROTATION YROTATION 
          End Site
          {
            OFFSET 0.220902 0.0008536199999999999 0.010221599999999999
          }
        }
      }
    }
  }
  JOINT RightUpLeg
  {
    OFFSET -0.08945800000000001 -0.0866707 0.0010165200000000001
    CHANNELS 3 ZROTATION XROTATION YROTATION 
    JOINT RightLeg
    {
      OFFSET 0.0 -0.444227 0.013727000000000001
      CHANNELS 3 ZROTATION XROTATION YROTATION 
      JOINT RightFoot
      {
        OFFSET 0.0025354900000000005 -0.42092399999999996 -0.014605900000000002
        CHANNELS 3 ZROTATION XROTATION YROTATION 
        End Site
        {
          OFFSET 0.0004 -0.0441509 0.08499100000000001
        }
      }
    }
  }
}
MOTION
Frames: 6
Frame Time: 0.033333
-31.075407999999985 0.908961725113894 -0.6816482500000001 -8.09814292621298 1.0178867635860158 -92.75321077777528 -1.6690809477581452 -19.91936220484467 -3.598561150075734 0.4811795165905523 10.71043927429086 24.32297982314324 -5.4461537875472175 -9.69266083323621 -0.19350638286032215 7.1171676788404765 12.23848919540611 1.3037013654904883 -7.080725204523873 1.4232669218410292 3.3149006190807544 76.9249850367011 -6.129567574859884 17.694429790260312 8.17899870560759 28.875434093645552 12.087495057198286 -72.51925347485441 -12.833643705150696 6.49779118386491 -6.454879666630659 39.27240951994149 -10.580169637572144 3.911987432030218 18.629209480068255 -8.930585037912977 0.4309512659296305 16.576165606136435 -10.243336297332027 5.122146261907914 -23.99995627163124 0.6200657571123551 
-31.114467999999984 0.903697225113894 -0.6796953000000001 -7.834058784596314 0.9517381957434405 -93.8417175352327 -2.1715271654640316 -19.675657640164033 -3.3100642048181506 0.7052188460728148 14.426933885670618 26.23301319623333 -3.1761071197212756 -7.579512148381925 -0.04842106865091165 6.930465311651824 11.661797540761716 1.6980172576203159 -7.589497884948483 1.635326259601648 3.798010357802923 77.72778498117688 -9.000037816488252 16.399943310455523 8.924129655373669 31.973853787973457 10.093137022388861 -71.77361538354246 -14.226980097718494 6.764676129928104 -7.045100645360379 40.304693575245956 -9.511523362673827 2.9562808963790004 20.305727223172074 -9.497830540935244 -0.23899085369925846 17.437894715223802 -8.326114150140494 6.893133205195826 -24.33431281452358 0.9692214523062633 
-31.154996999999984 0.900384725113894 -0.6781433200000001 -7.724505965403894 -0.11563803749522486 -94.86120523112716 -3.4836082125707732 -19.465181945795504 -2.715866348444191 0.7064304575985516 18.062028863843103 25.789482909647504 -0.6360408225290745 -2.858347723068653 0.03679951845340148 5.003146010432897 11.195422832723137 2.213910196811253 -7.35833952399951 1.552551410493675 4.117113380731333 78.2585999627136 -11.868638720718153 14.540538714588148 9.487907983618507 35.287875233641984 8.154545774605298 -70.98096510017331 -15.685858985561735 7.471745423657464 -7.659123125800301 41.000727417710685 -8.48315129821649 0.8846646175160046 21.966873625548782 -9.26175273623657 -0.85609206858799 18.50800094305721 -6.900059017014219 9.114540815281638 -23.843915477400422 1.3458550518919856 
-31.195245999999983 0.8984032251138939 -0.6769365600000001 -7.74869849544408 -1.8856495977531478 -94.89482342222196 -5.599637529707512 -19.718662218725726 -1.4299997808153693 0.9055656900673312 22.296735903967253 23.36752856581225 1.114271298223768 0.3537579887144538 -0.026924112120301026 1.7711533224272258 11.08210914061898 2.448959417709606 -6.399042443278982 0.8874281227263623 3.88521607869153 78.59381198679948 -14.718835680229454 12.174626926666493 9.84453350452603 37.8205571892069 6.35670722325595 -70.00607170936988 -18.055145740707022 8.135529674182337 -8.795593179156844 42.35500025086789 -6.6715033850258445 -1.8881675896793553 22.821403715250955 -8.185721319298175 -0.7599240189304155 21.14300767012538 -6.876686109674436 13.108421361686663 -22.698038546009478 1.9383338350292179 
-31.232385999999984 0.8963342251138939 -0.6725478600000001 -7.893390076595276 -3.0879101676293703 -94.72749744793498 -7.478469744895341 -19.06370001128757 -0.9928340565972321 1.1632299874727137 25.731199197912495 22.01890088400406 2.006335198405865 -0.5652364669109307 -0.04040805947034996 -0.2002049975073196 11.444099775119547 2.6469000074038678 -5.936949836963177 0.3411609854508347 3.7498600854752717 78.58851859019272 -19.726800389121795 8.9600760872018 11.497200227048165 42.70390338914507 2.0202899152104354 -69.40696849651138 -19.1695833113484 9.061292660512219 -9.287970417365663 42.85379872067017 -5.767259763449734 -4.214450406593185 22.21690123785356 -5.879320115841194 -0.7411099960573508 26.46390091093644 -7.655690101968723 18.134357152058953 -20.28684175011699 2.4094559514277796 
-31.267164999999984 0.8971182251138939 -0.6674091600000002 -8.128599593495712 -3.7238699350229036 -95.04079822516347 -8.685840576931202 -17.592200641405437 -0.6153290209229513 1.1984799534489148 27.850799850211505 22.30839845197505 2.4775399174047013 -3.8994164688628095 0.03752900133305736 -1.2110199673216466 11.658799941489727 2.8348401329361734 -5.911380170031588 0.06044630037064676 3.743199797260863 77.88660053975802 -22.15343341253851 5.418548724242965 12.547399014771925 45.35019871136398 -1.3132699269091472 -69.22722523831332 -19.41211479103909 8.855459787232007 -9.300920456032006 42.87530015617737 -5.686280186876417 -6.065990466518112 19.16059990504254 -3.2801797793218177 -0.7792779469130284 35.76180156958166 -8.377850271782403 20.530783663871286 -14.41207822422584 1.7381398165173807 
